<?xml version="1.0" encoding="iso-8859-1"?>
<!-- Generator: Adobe Illustrator 19.0.0, SVG Export Plug-In . SVG Version: 6.00 Build 0)  -->
<svg version="1.1" id="Capa_1" xmlns="http://www.w3.org/2000/svg" xmlns:xlink="http://www.w3.org/1999/xlink" x="0px" y="0px"
	 viewBox="0 0 384 384" style="enable-background:new 0 0 384 384;" xml:space="preserve">
<polygon style="fill:#EFEEEE;" points="72,8 376,8 376,280 280,376 72,376 "/>
<polygon style="fill:#ABABAB;" points="280,280 376,280 280,376 "/>
<rect x="8" y="88" style="fill:#CB5641;" width="256" height="128"/>
<path style="fill:#010101;" d="M64,0v80H0v144h64v160h224l96-96V0H64z M16,96h240v112H16V96z M288,361.376V288h73.376L288,361.376z
	 M368,272h-96v96H80V224h192V80H80V16h288V272z"/>
<g>
	<path style="fill:#FFFFFF;" d="M84.24,167.2c0,7.296-1.696,12.496-5.088,15.616c-3.392,3.088-8.576,4.656-15.552,4.656
		c-3.664,0-6.64-0.496-8.992-1.504c-2.336-0.992-4.192-2.384-5.568-4.224s-2.32-3.952-2.816-6.384
		c-0.528-2.416-0.784-4.992-0.784-7.68v-2.992h12.672v2.128c0,3.648,0.4,6.336,1.2,8.112c0.8,1.744,2.448,2.64,4.96,2.64
		c2.48,0,4.144-0.896,4.944-2.64c0.8-1.76,1.2-4.464,1.2-8.112V117.84H84.24C84.24,117.84,84.24,167.2,84.24,167.2z"/>
	<path style="fill:#FFFFFF;" d="M113.984,167.008c0,1.6,0.128,3.056,0.384,4.352c0.256,1.312,0.736,2.416,1.44,3.312
		c0.704,0.912,1.648,1.616,2.832,2.128c1.184,0.496,2.672,0.768,4.464,0.768c2.112,0,4.016-0.688,5.696-2.064
		c1.696-1.376,2.544-3.52,2.544-6.384c0-1.536-0.208-2.864-0.624-3.984c-0.4-1.12-1.088-2.128-2.064-3.008
		c-0.96-0.912-2.224-1.712-3.792-2.448c-1.568-0.736-3.504-1.488-5.792-2.256c-3.072-1.024-5.728-2.16-7.968-3.376
		c-2.256-1.2-4.112-2.624-5.632-4.272c-1.504-1.632-2.608-3.52-3.312-5.664c-0.704-2.16-1.04-4.624-1.04-7.456
		c0-6.784,1.888-11.824,5.664-15.152s8.976-4.992,15.568-4.992c3.056,0,5.904,0.336,8.48,1.008c2.592,0.672,4.848,1.744,6.736,3.264
		c1.872,1.504,3.36,3.424,4.4,5.744c1.056,2.336,1.6,5.136,1.6,8.4v1.92H130.32c0-3.264-0.576-5.776-1.728-7.552
		c-1.152-1.744-3.072-2.64-5.76-2.64c-1.536,0-2.816,0.24-3.824,0.672c-1.024,0.448-1.84,1.04-2.448,1.776s-1.056,1.616-1.28,2.576
		s-0.336,1.952-0.336,2.976c0,2.128,0.432,3.888,1.344,5.328c0.896,1.456,2.816,2.784,5.744,3.984l10.656,4.608
		c2.624,1.152,4.768,2.352,6.432,3.616c1.664,1.248,2.992,2.592,3.984,4.032c0.992,1.44,1.664,3.008,2.064,4.752
		c0.384,1.712,0.576,3.648,0.576,5.744c0,7.232-2.096,12.496-6.304,15.792c-4.192,3.296-10.032,4.96-17.52,4.96
		c-7.808,0-13.392-1.696-16.752-5.088s-5.008-8.256-5.008-14.608v-2.784h13.824L113.984,167.008z"/>
</g>
<g>
</g>
<g>
</g>
<g>
</g>
<g>
</g>
<g>
</g>
<g>
</g>
<g>
</g>
<g>
</g>
<g>
</g>
<g>
</g>
<g>
</g>
<g>
</g>
<g>
</g>
<g>
</g>
<g>
</g>
</svg>
